<svg id="Layer_5" enable-background="new 0 0 64 64" height="512" viewBox="0 0 64 64" width="512" xmlns="http://www.w3.org/2000/svg"><g><g><g><path d="m30 10v-6c0-1.1.9-2 2-2h24c1.1 0 2 .9 2 2v6z" fill="#b4dd7f"/></g><g><path d="m58 10v10c0 1.1-.9 2-2 2h-15v2.59c0 .78-.63 1.41-1.41 1.41-.38 0-.74-.15-1-.41l-3.59-3.59h-3c-1.1 0-2-.9-2-2v-10z" fill="#e6e9ed"/></g><g><path d="m34 14h6v4h-6z" fill="#fcd770"/></g><g><path d="m12.56 6h9.44c1.1 0 2.1.45 2.83 1.17.72.73 1.17 1.73 1.17 2.83 0 1.48-.8 2.77-2 3.46-.59.34-1.27.54-2 .54h-5.17c-.78 0-1.49-.32-2-.83l-.71-1.2-.12.03h-1c-1.66 0-3 1.34-3 3v1l-.59.59c-.9.9-1.41 2.13-1.41 3.41s.51 2.51 1.41 3.41l.59.59v3c-4.7-1.18-8-5.4-8-10.25v-.19c0-5.83 4.73-10.56 10.56-10.56z" fill="#b27946"/></g><g><path d="m14 35 3 4 2.54-7.61.4.1c1.23.3 2.33.88 3.25 1.67-.73.72-1.19 1.73-1.19 2.84v12c0 2.21 1.79 4 4 4h2v6h-5.17c.11-.31.17-.65.17-1 0-.83-.34-1.58-.88-2.12s-1.29-.88-2.12-.88v-.88c0-1.17-.95-2.12-2.12-2.12-.56 0-1.1.22-1.5.62l-1.38 1.38h-.17c-1.81 0-3.55-.72-4.83-2-1.08-1.08-1.77-2.5-1.95-4.01l-.05.01h-5.98c-.01-.22-.02-.44-.02-.66v-7.09c0-3.67 2.5-6.87 6.06-7.76l.4-.1 2.54 7.61z" fill="#ff826e"/></g><g><path d="m19.54 31.39-2.54 7.61-3-4 4-4z" fill="#fc6e51"/></g><g><path d="m14 35-3 4-2.54-7.61 1.54-.39z" fill="#fc6e51"/></g><g><path d="m62 62h-50c0-.86.28-1.66.74-2.32.13-.18.27-.35.43-.51.73-.72 1.73-1.17 2.83-1.17h6.83 5.17 4 10 16c2.21 0 4 1.79 4 4z" fill="#d3a06c"/></g><g><path d="m52 36v12c0 2.21-1.79 4-4 4h-6v-2c0-1.1-.9-2-2-2h-6c-1.1 0-2 .9-2 2v2h-4-2c-2.21 0-4-1.79-4-4v-12c0-1.11.46-2.12 1.19-2.84s1.72-1.16 2.81-1.16h22c2.21 0 4 1.79 4 4z" fill="#ccd1d9"/></g><g><path d="m42 52v6h-10v-6-2c0-1.1.9-2 2-2h6c1.1 0 2 .9 2 2z" fill="#aab2bd"/></g><g><path d="m23 57c0 .35-.06.69-.17 1h-6.83c-1.1 0-2.1.45-2.83 1.17-.16.16-.3.33-.43.51-2.53-.55-4.88-1.82-6.74-3.68-2.4-2.4-3.82-5.61-3.98-9h5.98l.05-.01c.18 1.51.87 2.93 1.95 4.01 1.28 1.28 3.02 2 4.83 2h.17l1.38-1.38c.4-.4.94-.62 1.5-.62 1.17 0 2.12.95 2.12 2.12v.88c.83 0 1.58.34 2.12.88s.88 1.29.88 2.12z" fill="#f0d0b4"/></g><g><path d="m16.83 14h5.17c.73 0 1.41-.2 2-.54v8.54c0 1.3-.42 2.56-1.2 3.6-.56.76-1.29 1.36-2.12 1.77-.82.41-1.74.63-2.68.63v3l-4 4-4-4v-4-3l-.59-.59c-.9-.9-1.41-2.13-1.41-3.41s.51-2.51 1.41-3.41l.59-.59v-1c0-1.66 1.34-3 3-3h1l.12-.03.71 1.2c.51.51 1.22.83 2 .83z" fill="#f0d0b4"/></g></g><g><circle cx="15" cy="18" r="1"/><circle cx="21" cy="18" r="1"/><path d="m20 21.764c-.381.762-1.147 1.236-2 1.236s-1.619-.474-2-1.236l-.105-.211-1.789.895.105.21c.722 1.445 2.174 2.342 3.789 2.342s3.067-.897 3.789-2.342l.105-.211-1.789-.895z"/><path d="m58 57h-15v-4h5c2.757 0 5-2.243 5-5v-12c0-2.757-2.243-5-5-5h-22c-1.052 0-2.027.33-2.833.888-.901-.631-1.915-1.106-2.984-1.373l-1.183-.296v-1.301c1.815-.266 3.487-1.235 4.6-2.719.903-1.204 1.4-2.695 1.4-4.2v-8.026c1.207-.914 2-2.348 2-3.974 0-2.757-2.243-5-5-5h-9.438c-6.375.001-11.562 5.188-11.562 11.563v.192c0 5.049 3.254 9.459 8 10.992v2.473l-1.183.295c-4.013 1.005-6.817 4.595-6.817 8.732v7.097c0 3.916 1.524 7.596 4.293 10.364 1.688 1.688 3.75 2.924 6.014 3.627-.187.524-.307 1.079-.307 1.666v1h52v-1c0-2.757-2.243-5-5-5zm-25 0v-7c0-.551.448-1 1-1h6c.552 0 1 .449 1 1v7zm-2-4v4h-2v-4zm-5-20h22c1.654 0 3 1.346 3 3v12c0 1.654-1.346 3-3 3h-5v-1c0-1.654-1.346-3-3-3h-6c-1.654 0-3 1.346-3 3v1h-5c-1.654 0-3-1.346-3-3v-12c0-1.654 1.346-3 3-3zm-7.789-.797-1.556 4.67-1.335-1.779zm4.789-10.203c0 1.075-.355 2.141-1 3-.939 1.252-2.435 2-4 2h-1.764c-.998 0-1.896-.555-2.342-1.447l-1.789.895c.789 1.574 2.372 2.552 4.131 2.552h.764v1.586l-3 3-3-3v-7l-.879-.879c-.723-.723-1.121-1.685-1.121-2.707s.398-1.984 1.121-2.707l.879-.879v-1.414c0-1.103.897-2 2-2h.486c.651 1.185 1.897 2 3.342 2h5.172c.342 0 .677-.035 1-.101zm-10.32 13.094-1.335 1.779-1.556-4.67zm-9.68-18.34v-.192c0-5.273 4.289-9.562 9.562-9.562h9.438c1.654 0 3 1.346 3 3s-1.346 3-3 3h-5.172c-1.008 0-1.828-.82-1.828-1.829 0-.488.19-.948.534-1.292l.172-.171-1.412-1.416-.173.173c-.681.682-1.062 1.578-1.104 2.535h-.017c-2.206 0-4 1.794-4 4v.586l-.293.293c-1.101 1.1-1.707 2.564-1.707 4.121s.606 3.021 1.707 4.121l.293.293v1.206c-3.587-1.437-6-4.913-6-8.866zm4.82 15.866 2.835 8.507 3.345-4.46 3.345 4.46 2.84-8.52c.559.184 1.094.434 1.588.751-.482.769-.773 1.67-.773 2.642v12c0 2.757 2.243 5 5 5h1v4h-3c0-1.86-1.276-3.428-3-3.874v-.005c0-1.721-1.4-3.121-3.121-3.121-.822 0-1.626.333-2.207.914l-1.081 1.081c-1.468-.058-2.84-.658-3.884-1.702-1.101-1.101-1.707-2.565-1.707-4.122v-8.171h-2v8h-4v-6.754c0-3.045 1.965-5.688 4.82-6.626zm-1.113 22.673c-1.995-1.994-3.229-4.541-3.587-7.293h4.103c.332 1.391 1.034 2.67 2.07 3.707 1.478 1.479 3.443 2.293 5.535 2.293h.586l1.672-1.672c.209-.208.498-.328.793-.328.618 0 1.121.503 1.121 1.121v1.879h1c1.103 0 2 .897 2 2h-6c-1.423 0-2.702.605-3.613 1.563-2.147-.574-4.103-1.693-5.68-3.27zm6.464 5.707c.413-1.164 1.525-2 2.829-2h42c1.304 0 2.416.836 2.829 2z"/><path d="m33 5h2v2h-2z"/><path d="m37 5h2v2h-2z"/><path d="m41 5h2v2h-2z"/><path d="m33 19h8v-6h-8zm2-4h4v2h-4z"/><path d="m43 13h2v2h-2z"/><path d="m47 13h8v2h-8z"/><path d="m43 17h12v2h-12z"/><path d="m32 23h2.586l3.292 3.292c.449.45 1.071.708 1.708.708 1.331 0 2.414-1.083 2.414-2.414v-1.586h14c1.654 0 3-1.346 3-3v-16c0-1.654-1.346-3-3-3h-24c-1.654 0-3 1.346-3 3v16c0 1.654 1.346 3 3 3zm24-2h-16v3.586c0 .338-.468.531-.707.293l-3.879-3.879h-3.414c-.552 0-1-.449-1-1v-9h26v9c0 .551-.448 1-1 1zm-24-18h24c.552 0 1 .449 1 1v5h-26v-5c0-.551.448-1 1-1z"/><path d="m13 43h2v2h-2z"/><path d="m13 39h2v2h-2z"/><path d="m13 47h2v2h-2z"/></g></g></svg>